<?xml version="1.0" standalone="no"?>
<!DOCTYPE svg PUBLIC "-//W3C//DTD SVG 20010904//EN"
 "http://www.w3.org/TR/2001/REC-SVG-20010904/DTD/svg10.dtd">
<svg version="1.0" xmlns="http://www.w3.org/2000/svg"
 width="2062.000000pt" height="2062.000000pt" viewBox="0 0 2062.000000 2062.000000"
 preserveAspectRatio="xMidYMid meet">
<metadata>
Created by potrace 1.11, written by Peter Selinger 2001-2013
</metadata>
<g transform="translate(0.000000,2062.000000) scale(0.100000,-0.100000)"
fill="#000000" stroke="none">
<path d="M8398 20595 c-2 -1 -75 -5 -163 -9 -88 -4 -185 -11 -215 -16 -30 -5
-80 -12 -110 -15 -30 -3 -95 -14 -145 -25 -49 -11 -103 -22 -120 -26 -16 -3
-48 -10 -70 -16 -47 -14 -40 -12 -90 -22 -63 -12 -352 -113 -440 -153 -207
-94 -290 -135 -297 -146 -4 -7 -8 -8 -8 -4 0 5 -12 0 -27 -11 -16 -11 -52 -32
-80 -47 -29 -15 -53 -31 -53 -36 0 -5 -6 -9 -14 -9 -7 0 -49 -25 -92 -55 -44
-30 -90 -63 -104 -72 -51 -35 -185 -138 -195 -149 -5 -6 -55 -51 -109 -99
-106 -93 -237 -228 -246 -252 -3 -8 -9 -14 -13 -13 -4 0 -20 -14 -35 -32 -15
-18 -39 -46 -54 -62 -16 -16 -28 -33 -28 -37 0 -5 -8 -16 -18 -26 -39 -39
-121 -151 -115 -157 3 -3 1 -6 -5 -6 -6 0 -36 -42 -68 -92 -31 -51 -74 -119
-96 -150 -21 -32 -36 -58 -32 -58 3 0 1 -6 -5 -14 -27 -32 -155 -307 -210
-449 -81 -208 -161 -489 -176 -620 -3 -23 -11 -75 -19 -114 -8 -40 -18 -108
-21 -150 -3 -43 -11 -121 -17 -173 -13 -114 -4 -409 17 -560 8 -58 18 -132 21
-165 15 -168 126 -572 222 -805 58 -142 189 -401 249 -495 112 -173 154 -237
172 -257 10 -13 55 -68 99 -123 44 -55 107 -129 141 -165 33 -36 61 -69 61
-73 0 -5 5 -5 10 -2 6 3 10 1 10 -5 0 -12 50 -62 142 -142 l47 -41 -80 -63
c-101 -79 -188 -160 -260 -244 -67 -78 -132 -170 -132 -187 0 -7 -3 -10 -7 -8
-16 10 -132 -238 -175 -375 -55 -176 -70 -290 -69 -505 1 -207 38 -401 121
-645 41 -121 139 -330 154 -330 6 0 8 -4 5 -8 -7 -12 49 -103 59 -95 4 5 5 2
0 -6 -4 -7 -3 -16 2 -20 5 -3 32 -40 61 -81 59 -86 73 -103 180 -220 75 -83
270 -261 295 -269 6 -2 14 -7 17 -11 11 -15 160 -120 160 -113 0 4 4 3 8 -3
19 -29 440 -256 497 -269 5 -1 32 -12 59 -24 27 -12 56 -23 65 -24 9 -2 25 -8
36 -14 21 -12 252 -87 375 -123 152 -45 267 -84 330 -113 36 -16 70 -30 75
-31 6 -1 17 -6 25 -11 8 -5 47 -26 85 -46 88 -45 108 -56 167 -96 26 -18 50
-33 53 -33 6 0 89 -57 161 -112 28 -21 56 -38 62 -38 5 0 12 -4 14 -8 2 -4 48
-43 103 -87 55 -43 144 -116 198 -162 53 -46 97 -82 97 -80 0 2 19 -14 43 -37
24 -23 76 -70 117 -106 281 -247 574 -535 720 -710 30 -36 58 -67 61 -70 7 -6
77 -97 104 -134 11 -15 34 -47 51 -70 91 -122 191 -310 242 -456 28 -80 58
-227 68 -330 3 -25 8 -81 13 -125 9 -86 7 -747 -3 -855 -3 -36 -8 -110 -11
-165 -8 -157 -23 -376 -30 -440 -2 -22 -7 -74 -10 -115 -3 -41 -10 -115 -14
-165 -5 -49 -9 -97 -9 -105 -1 -8 -3 -33 -6 -55 -3 -22 -7 -65 -10 -95 -3 -30
-13 -120 -21 -200 -9 -80 -18 -163 -20 -185 -2 -22 -13 -116 -25 -210 -11 -93
-23 -190 -26 -215 -3 -25 -18 -151 -35 -280 -17 -129 -32 -251 -34 -270 -5
-42 -56 -418 -90 -660 -14 -96 -27 -195 -30 -220 -3 -25 -7 -56 -10 -70 -3
-14 -7 -45 -10 -70 -3 -25 -10 -72 -15 -105 -15 -97 -121 -875 -145 -1060 -9
-75 -45 -390 -50 -450 -4 -33 -9 -82 -12 -110 -3 -27 -7 -120 -9 -206 -5 -236
31 -430 117 -641 47 -113 126 -258 142 -258 6 0 7 -3 4 -6 -6 -6 16 -42 50
-84 7 -8 26 -33 43 -55 89 -113 297 -305 314 -288 3 3 6 2 6 -4 0 -12 100 -79
112 -76 5 2 8 -1 8 -7 0 -17 225 -118 341 -153 358 -108 694 -100 1034 25 77
28 225 96 235 107 3 3 17 12 33 20 15 8 27 18 27 23 0 5 4 7 8 4 12 -7 183
123 265 202 69 67 187 204 187 218 0 4 7 12 14 18 8 6 16 17 18 25 2 7 12 24
24 37 28 31 125 229 159 324 38 108 62 215 85 386 20 147 42 248 82 374 25 78
84 243 103 285 7 17 17 41 23 55 6 14 26 60 46 103 20 43 36 80 36 82 0 3 30
67 66 142 83 172 114 241 113 249 0 4 3 10 9 13 5 3 37 62 72 131 98 196 258
499 380 725 44 81 68 129 68 139 0 5 5 12 10 15 5 3 25 38 45 76 19 39 47 91
61 117 15 27 24 48 19 48 -4 0 -3 4 3 8 11 7 218 413 284 558 68 147 122 268
161 362 70 167 369 949 373 976 1 6 4 16 8 21 7 11 58 153 62 170 1 6 4 15 7
20 5 8 50 136 54 155 1 3 6 16 12 30 10 24 130 387 194 585 95 297 237 838
308 1170 42 198 89 445 96 505 2 19 8 60 14 90 5 30 12 73 15 95 3 22 10 72
15 110 6 39 13 93 16 120 2 28 6 64 9 80 2 17 7 68 11 115 3 47 8 92 10 100 4
14 8 75 21 320 7 127 6 644 -1 750 -3 47 -10 146 -15 220 -6 74 -12 169 -15
210 -13 183 -66 709 -100 985 -8 66 -17 143 -20 170 -3 28 -8 64 -11 80 -3 17
-7 50 -10 75 -5 52 -49 378 -100 750 -64 463 -115 845 -116 860 0 8 -4 47 -10
85 -5 39 -11 88 -13 110 -2 22 -10 103 -19 180 -18 166 -35 335 -42 425 -3 36
-7 83 -9 105 -6 67 -20 327 -20 383 0 28 -2 52 -5 52 -7 0 -4 671 4 795 8 125
15 218 21 270 3 22 7 67 10 100 3 33 10 92 16 130 5 39 12 88 15 110 18 137
83 470 124 624 10 41 17 78 14 82 -2 4 0 9 5 11 6 1 12 14 14 28 8 51 126 424
168 533 10 26 15 47 11 47 -4 0 -2 4 5 8 20 13 102 274 123 396 38 212 30 457
-21 660 -29 119 -70 236 -82 236 -6 0 -8 3 -4 6 12 12 -102 235 -140 272 -7 7
-13 17 -13 22 0 26 -193 239 -296 328 -60 51 -245 172 -255 166 -5 -3 -9 -1
-9 4 0 25 -323 152 -425 167 -22 4 -58 11 -81 15 -168 37 -504 22 -679 -30
-151 -45 -325 -116 -325 -132 0 -5 -4 -7 -9 -3 -5 3 -25 -5 -45 -17 -19 -13
-62 -40 -96 -62 -141 -88 -300 -236 -410 -382 -19 -25 -69 -77 -112 -114 -42
-38 -74 -71 -70 -74 3 -3 0 -6 -7 -6 -11 0 -48 -30 -113 -92 -16 -16 -33 -28
-38 -28 -4 0 -10 -3 -12 -7 -3 -8 -113 -103 -188 -163 -24 -19 -71 -58 -104
-86 -102 -85 -503 -404 -509 -404 -2 0 -14 24 -27 53 -34 81 -142 292 -151
295 -5 2 -9 12 -9 22 0 11 -6 23 -14 27 -8 4 -14 11 -13 14 4 14 -197 308
-206 302 -6 -3 -7 -2 -4 4 4 5 -1 19 -11 29 -9 11 -37 46 -62 79 -85 113 -319
357 -334 348 -6 -3 -8 -3 -4 2 4 4 -2 17 -15 27 -12 11 -50 45 -85 76 -35 31
-68 56 -73 54 -5 -1 -9 2 -9 7 0 10 -233 189 -252 193 -7 2 -15 6 -18 9 -32
37 -362 224 -374 212 -3 -3 -6 -1 -6 5 0 13 -18 22 -275 130 -185 79 -550 176
-775 207 -173 23 -193 25 -350 31 -80 3 -153 7 -162 8 -9 2 -18 3 -20 1z"/>
<path d="M12980 903 c0 -8 12 -13 35 -13 l35 0 0 -95 c0 -88 1 -95 20 -95 19
0 20 7 20 95 l0 95 35 0 c24 0 35 5 35 15 0 12 -16 15 -90 13 -68 -1 -90 -4
-90 -15z"/>
<path d="M13199 913 c-3 -51 -10 -137 -14 -170 -4 -37 -2 -43 14 -43 16 0 19
12 26 91 3 50 10 87 14 83 4 -5 18 -46 31 -91 21 -75 25 -82 46 -81 13 1 25 8
25 15 2 16 4 24 12 43 3 8 14 42 23 75 21 75 32 56 33 -57 1 -73 2 -78 22 -78
21 0 21 3 14 83 -4 45 -8 93 -9 107 -1 21 -6 25 -31 25 -28 0 -31 -4 -56 -74
-14 -41 -32 -77 -39 -79 -7 -3 -10 0 -7 5 3 5 -5 40 -18 78 -21 64 -25 69 -54
73 -17 2 -31 -1 -32 -5z"/>
</g>
</svg>
